<svg xmlns="http://www.w3.org/2000/svg" width="61" height="66" fill="none"><g clip-path="url(#a)"><path fill="#E0565B" d="M56.42 52.748c-.452 3.361-2.715 6.27-5.882 7.563-1.552.646-3.232.84-4.913.646-1.616-.194-3.232-.71-4.913-1.68-2.327-1.294-4.654-3.297-7.369-6.27 4.267-5.236 6.852-10.02 7.822-14.286.452-2.004.517-3.814.323-5.495-.258-1.616-.84-3.103-1.745-4.395-2.004-2.909-5.365-4.59-9.115-4.59-3.749 0-7.11 1.746-9.114 4.59-.905 1.292-1.486 2.78-1.745 4.395a13.428 13.428 0 0 0 .323 5.496c.97 4.265 3.62 9.113 7.822 14.348-2.65 2.975-5.042 4.978-7.37 6.272-1.68.97-3.296 1.487-4.912 1.68a10.34 10.34 0 0 1-4.913-.646c-3.168-1.293-5.43-4.203-5.882-7.564-.194-1.615-.065-3.231.582-5.041.193-.647.517-1.293.84-2.069.452-1.034.97-2.133 1.486-3.233l.065-.128c4.46-9.632 9.244-19.457 14.221-29.024l.194-.388c.517-.969 1.034-2.003 1.552-2.973.517-1.034 1.098-2.004 1.81-2.845 1.357-1.552 3.167-2.392 5.17-2.392 2.004 0 3.814.84 5.172 2.392.711.84 1.293 1.81 1.81 2.845.517.97 1.034 2.004 1.551 2.973l.195.388A856.885 856.885 0 0 1 53.64 42.406v.063c.517 1.035.97 2.2 1.486 3.233.324.776.647 1.422.84 2.069.518 1.68.712 3.297.453 4.977Zm-25.792-3.039c-3.49-4.395-5.753-8.532-6.528-12.022-.323-1.487-.388-2.78-.194-3.944.13-1.034.517-1.94 1.034-2.716 1.228-1.743 3.296-2.844 5.688-2.844s4.525 1.035 5.689 2.844a6.28 6.28 0 0 1 1.034 2.716c.194 1.164.129 2.521-.194 3.944-.775 3.426-3.038 7.563-6.528 12.022Zm29.154-3.36c-.323-.777-.647-1.617-.97-2.328-.517-1.163-1.034-2.262-1.487-3.297l-.065-.064a672.747 672.747 0 0 0-14.285-29.217l-.194-.389c-.517-.97-1.035-2.004-1.551-3.038-.647-1.164-1.293-2.39-2.327-3.555-2.07-2.586-5.042-4.008-8.21-4.008-3.232 0-6.14 1.422-8.274 3.879-.97 1.163-1.68 2.391-2.327 3.556-.517 1.034-1.035 2.068-1.552 3.038l-.194.387C13.37 21.009 8.521 30.835 4.061 40.53l-.065.13c-.452 1.033-.97 2.131-1.487 3.296a42.838 42.838 0 0 0-.969 2.327C.7 48.675.441 50.938.764 53.264a13.738 13.738 0 0 0 8.404 10.731c1.68.712 3.425 1.035 5.236 1.035.517 0 1.163-.065 1.68-.13 2.133-.259 4.33-.969 6.464-2.197 2.65-1.487 5.172-3.62 8.016-6.723 2.843 3.103 5.43 5.236 8.015 6.723 2.133 1.228 4.331 1.938 6.464 2.197.517.065 1.164.13 1.68.13 1.81 0 3.62-.323 5.237-1.035 4.524-1.809 7.692-5.946 8.403-10.73.517-2.263.258-4.524-.582-6.917Z"/></g><defs><clipPath id="a"><path fill="#fff" d="M.63.453h60v64.688h-60z"/></clipPath></defs></svg>