<svg xmlns="http://www.w3.org/2000/svg" width="61" height="62" fill="none"><g clip-path="url(#a)"><path fill="#13A049" d="M30.445 9.086v17.245l14.964-8.64V.445L30.445 9.086Z" opacity=".5"/><path fill="#A2CC39" d="M30.445 9.086 15.48.446v17.28l14.964 8.641V9.086Z" opacity=".5"/><path fill="url(#b)" d="M45.409.445 30.445 9.086 15.48.446.517 9.085l29.928 17.281 29.91-17.281L45.41.446Z" opacity=".9"/><path fill="url(#c)" d="M30.445 26.367.517 9.086v17.281l14.964 8.641v17.264l14.964 8.64 14.964-8.64V35.008l14.946-8.64V9.085l-29.91 17.281Z"/><path fill="url(#d)" d="M30.445 26.367v34.545l14.964-8.64V35.008l14.946-8.64V9.085l-29.91 17.281Z"/><path fill="#231F20" d="M30.445 43.63v17.282l14.964-8.64-14.964-8.641Z" opacity=".05"/><path fill="#231F20" d="M30.445 60.948V43.667l-14.964 8.64 14.964 8.641Z" opacity=".1"/><path fill="#231F20" d="M15.481 17.727.517 26.367l14.964 8.641 14.964-8.64-14.964-8.641ZM45.409 17.727l-14.964 8.64 14.964 8.641 14.946-8.64-14.946-8.641Z" opacity=".05"/></g><defs><linearGradient id="b" x1="60.362" x2=".517" y1="13.404" y2="13.404" gradientUnits="userSpaceOnUse"><stop stop-color="#37BDA6"/><stop offset="1" stop-color="#8AD3B8"/></linearGradient><linearGradient id="c" x1="60.362" x2=".517" y1="34.998" y2="34.998" gradientUnits="userSpaceOnUse"><stop offset=".5" stop-color="#4BB6AD"/><stop offset="1" stop-color="#78BBC1"/></linearGradient><linearGradient id="d" x1="30.439" x2="60.362" y1="34.998" y2="34.998" gradientUnits="userSpaceOnUse"><stop stop-color="#4379A7"/><stop offset="1" stop-color="#7CC9B8"/></linearGradient><clipPath id="a"><path fill="#fff" d="M.517.445h60v60.703h-60z"/></clipPath></defs></svg>