<svg xmlns="http://www.w3.org/2000/svg" width="61" height="61" fill="none"><g clip-path="url(#a)"><path fill="url(#b)" d="M13.657.797h33.72c7.257 0 13.14 5.883 13.14 13.14v33.72c0 7.257-5.883 13.14-13.14 13.14h-33.72c-7.257 0-13.14-5.883-13.14-13.14v-33.72C.517 6.68 6.4.797 13.657.797Z"/><path fill="#fff" d="m19.745 44.346.006.002L17.7 47.9a2.712 2.712 0 1 1-4.697-2.712l1.511-2.617.145-.252c.259-.372.898-1.014 2.177-.894 0 0 3.008.327 3.226 1.89 0 0 .03.515-.317 1.03Zm29.097-9.075h-6.398c-.435-.03-.625-.185-.7-.276l-.005-.008-6.848-11.86-.009.005-.41-.588c-.673-1.03-1.742 1.603-1.742 1.603-1.276 2.933.181 6.268.689 7.276l9.511 16.474a2.712 2.712 0 1 0 4.697-2.712l-2.378-4.119c-.046-.1-.127-.37.361-.372h3.232a2.712 2.712 0 0 0 0-5.423Zm-12.426 3.686s.342 1.737-.98 1.737H11.789a2.712 2.712 0 0 1 0-5.423h6.08c.982-.057 1.214-.624 1.214-.624l.006.003 7.936-13.746h-.003a.607.607 0 0 0 .004-.556l-2.621-4.54a2.711 2.711 0 1 1 4.697-2.712l1.215 2.106 1.213-2.102a2.712 2.712 0 0 1 4.697 2.712L25.183 34.939c-.048.117-.063.3.296.332h6.601l.002.064s3.815.06 4.334 3.622Z"/></g><defs><linearGradient id="b" x1="30.517" x2="30.517" y1=".797" y2="60.797" gradientUnits="userSpaceOnUse"><stop stop-color="#17C9FB"/><stop offset="1" stop-color="#1A74E8"/></linearGradient><clipPath id="a"><path fill="#fff" d="M.517.797h60v60h-60z"/></clipPath></defs></svg>