<svg xmlns="http://www.w3.org/2000/svg" width="73" height="61" fill="none"><g clip-path="url(#a)"><path fill="#B6DEFF" d="M36.658.797C17.323.797 2.174 25.397.74 46.174c6.068 10.53 20.7 14.49 35.917 14.49 15.217 0 29.85-3.96 35.914-14.49C71.14 25.397 55.992.797 36.658.797"/><path fill="#6C6" d="M67.52 41.225s-4.27-9.233-8.611-14.62C54.565 21.218 49.26 15.35 46.124 15.35c-3.135 0-11.897 15.514-15.917 15.514-4.021 0-6.11-7.033-11.054-7.033-4.945 0-12.802 16.96-12.802 16.96l-.533 2.876s2.73 12.102 31.286 12.102c28.557 0 30.84-11.904 30.84-11.904l-.424-2.64"/><path fill="#17AD49" d="M30.654 37.486c-4.435 0-6.708-4.376-7.94-7.077-1.11-2.434-1.301-6.275-4.446-6.383.309-.122.606-.195.885-.195 4.943 0 7.033 7.033 11.054 7.033 4.02 0 12.783-15.515 15.917-15.515.591 0 1.256.209 1.978.58-.534-.071-1.218-.022-1.746.507-1.013 1.014-10.211 21.05-15.702 21.05Z"/></g><defs><clipPath id="a"><path fill="#fff" d="M.517.797H72.63v60H.517z"/></clipPath></defs></svg>