<svg xmlns="http://www.w3.org/2000/svg" width="151" height="61" fill="none"><g clip-path="url(#a)"><path fill="#1F70C1" d="M.63.797v4.101h29.168V.797H.63Zm33.301 0v4.101h41.567S71.252.797 65.628.797H33.931Zm49.721 0v4.101h25.147L107.307.797H83.652Zm43.177 0-1.493 4.101h24.919V.797h-23.426ZM.629 8.772v4.102H29.8V8.772H.628Zm33.302.006v4.096h46.39s-.541-3.157-1.487-4.096H33.931Zm49.721 0v4.096h27.904l-1.381-4.096H83.652Zm40.191 0-1.381 4.096h27.793V8.778h-26.412ZM9.012 16.748v4.106h12.632v-4.106H9.012Zm33.301 0v4.106h12.633v-4.106H42.313Zm24.92 0v4.106h12.632s.802-2.168.802-4.106H67.232Zm24.801 0v4.106h22.396l-1.492-4.106H92.034Zm29.058 0-1.499 4.107h22.508v-4.107h-21.009ZM9.012 24.73v4.1h12.632v-4.1H9.012Zm33.301 0v4.1H74.58s2.699-2.104 3.559-4.101H42.313Zm49.721 0v4.1h12.633v-2.283l.802 2.283h23.139l.861-2.283v2.283h12.632v-4.1h-23.713l-1.259 3.473-1.264-3.473h-23.83ZM9.012 32.705v4.1h12.632v-4.1H9.012Zm33.301 0v4.1h35.825c-.86-1.99-3.56-4.1-3.56-4.1H42.314Zm49.721 0v4.1h12.633v-4.1H92.034Zm14.927 0 1.528 4.1h17.35l1.452-4.1h-20.33Zm22.508 0v4.1h12.632v-4.1h-12.632ZM9.012 40.68v4.101h12.632v-4.1H9.012Zm33.301 0v4.101h12.633v-4.1H42.313Zm24.92 0v4.101h13.434c0-1.935-.802-4.1-.802-4.1H67.232Zm24.801 0v4.101h12.633v-4.1H92.034Zm17.796 0 1.48 4.101h11.632l1.492-4.1H109.83Zm19.639 0v4.101h12.632v-4.1h-12.632ZM.858 48.656v4.107h29.169v-4.107H.857Zm33.073 0v4.107h44.903c.945-.94 1.487-4.107 1.487-4.107h-46.39Zm49.95 0v4.107h20.786v-4.107H83.88Zm28.823 0 1.522 4.107h5.918l1.428-4.107h-8.868Zm16.765 0v4.107h21.014v-4.107h-21.014ZM.858 56.637v4.101h29.169v-4.1H.857Zm33.073 0v4.095h31.698c5.623 0 9.869-4.095 9.869-4.095H33.93Zm49.95 0v4.101h20.786v-4.1H83.88Zm31.709 0 1.463 4.09.252.005 1.486-4.095h-3.201Zm13.879 0v4.101h21.014v-4.1h-21.014Z"/></g><defs><clipPath id="a"><path fill="#fff" d="M.63.797h149.854v60H.63z"/></clipPath></defs></svg>