<svg xmlns="http://www.w3.org/2000/svg" width="30" height="30" fill="none"><path fill="#02E4C0" d="M12.55 13.395c1.478 2.46 1.261 5.355-.508 6.525-1.769 1.14-4.408.075-5.901-2.385-1.48-2.46-1.247-5.385.521-6.525 1.77-1.14 4.408-.075 5.888 2.385ZM15 23.625c2.9 0 3.625-1.125 3.625-1.125s-.725 3-3.625 3-3.625-2.955-3.625-3c0 0 .725 1.125 3.625 1.125Zm8.337-12.615c1.77 1.14 2.002 4.065.523 6.525-1.494 2.46-4.133 3.525-5.902 2.385-1.769-1.17-1.986-4.065-.507-6.525s4.117-3.525 5.886-2.385ZM15 27c3.625 0 11.6-7.71 11.6-13.5S21.394 3 15 3C8.605 3 3.4 7.71 3.4 13.5S11.375 27 15 27Zm0-27c7.975 0 14.5 6.06 14.5 13.5C29.5 19.62 21.264 30 15 30 8.736 30 .5 19.62.5 13.5.5 6.06 7.025 0 15 0Z"/></svg>