<svg xmlns="http://www.w3.org/2000/svg" width="46" height="47" fill="none"><path fill="#000" d="M23 26.904c4.228 0 7.667-3.439 7.667-7.667S27.228 11.57 23 11.57s-7.667 3.439-7.667 7.667 3.439 7.667 7.667 7.667Zm0-11.5a3.837 3.837 0 0 1 3.833 3.833A3.837 3.837 0 0 1 23 23.07a3.837 3.837 0 0 1-3.833-3.833A3.837 3.837 0 0 1 23 15.404Z"/><path fill="#fff" d="M21.889 41.88a1.912 1.912 0 0 0 2.223 0c.583-.411 14.277-10.3 14.222-22.643 0-8.454-6.88-15.333-15.334-15.333S7.667 10.783 7.667 19.228C7.61 31.58 21.306 41.468 21.889 41.88ZM23 7.738c6.342 0 11.5 5.158 11.5 11.51.04 8.506-8.41 16.144-11.5 18.649-3.088-2.507-11.54-10.147-11.5-18.659 0-6.342 5.158-11.5 11.5-11.5Z"/></svg>