<svg xmlns="http://www.w3.org/2000/svg" width="42" height="42" fill="none"><path fill="#fff" d="M36.198 4.553H6.74a1.28 1.28 0 0 0-1.28 1.281v29.46c0 .708.572 1.28 1.28 1.28h29.46a1.28 1.28 0 0 0 1.28-1.28V5.833a1.28 1.28 0 0 0-1.28-1.28ZM14.956 31.84h-4.75V16.557h4.75v15.282Zm-2.373-17.371a2.755 2.755 0 1 1 2.753-2.754 2.759 2.759 0 0 1-2.753 2.754Zm20.16 17.37h-4.746v-7.432c0-1.773-.032-4.05-2.47-4.05-2.47 0-2.85 1.929-2.85 3.922v7.56h-4.743V16.558h4.555v2.09h.064c.633-1.201 2.182-2.47 4.495-2.47 4.811 0 5.696 3.166 5.696 7.28v8.382Z"/></svg>